SplineFontDB: 3.0
FontName: Mourier
FullName: Mourier
FamilyName: Mourier
Weight: Medium
Copyright: Designed by Eric Mourier in 1970.\nDigitalized in Nov. 2011 by Sebastien Hayez\nDistributed by VTF\nhttp://www.velvetyne.fr\nCreated with FontForge 2.0 (http://fontforge.sf.net)
UComments: "2011-10-27: Created." 
Version: 001.000
ItalicAngle: 0
UnderlinePosition: -100
UnderlineWidth: 50
Ascent: 800
Descent: 200
LayerCount: 2
Layer: 0 0 "Arri+AOgA-re"  1
Layer: 1 0 "Avant"  0
XUID: [1021 112 18547 7468]
FSType: 0
OS2Version: 0
OS2_WeightWidthSlopeOnly: 0
OS2_UseTypoMetrics: 1
CreationTime: 1319726872
ModificationTime: 1321536862
OS2TypoAscent: 0
OS2TypoAOffset: 1
OS2TypoDescent: 0
OS2TypoDOffset: 1
OS2TypoLinegap: 90
OS2WinAscent: 0
OS2WinAOffset: 1
OS2WinDescent: 0
OS2WinDOffset: 1
HheadAscent: 0
HheadAOffset: 1
HheadDescent: 0
HheadDOffset: 1
OS2Vendor: 'PfEd'
MarkAttachClasses: 1
DEI: 91125
Encoding: UnicodeFull
UnicodeInterp: none
NameList: Adobe Glyph List
DisplaySize: -24
AntiAlias: 1
FitToEm: 1
WinInfo: 50 50 22
BeginChars: 1114112 308

StartChar: A
Encoding: 65 65 0
Width: 800
VWidth: 0
Flags: W
HStem: 0 21G<50 150 250 350 450 550 650 750> 0 21G<50 150 250 350 450 550 650 750> 400 99.438<350 450> 600.562 99.438<150 650>
VStem: 50 100<0 600.562> 250 100<0 400> 450 100<0 400> 650 100<0 600.562>
LayerCount: 2
Fore
SplineSet
250 499.438 m 1xbf
 550 499.438 l 1
 550 400 l 1
 550 0 l 1
 450 0 l 1
 450 400 l 1
 350 400 l 1
 350 0 l 1
 250 0 l 1
 250 499.438 l 1xbf
50 699.438 m 1
 50 700 l 1
 750 700 l 1
 750 699.438 l 1
 750 0 l 1
 650 0 l 1
 650 600.562 l 1
 150 600.562 l 1
 150 0 l 1
 50 0 l 1
 50 699.438 l 1
EndSplineSet
Validated: 1
EndChar

StartChar: B
Encoding: 66 66 1
Width: 800
VWidth: 0
Flags: W
HStem: 0.5625 99.4375<250 650> 200.562 99.438<150 650> 400 99.438<150 650> 600.562 99.438<250 650>
VStem: 50 100<1.12695 200.562 499.438 699.438> 650 100<100 200.562 499.438 600.562>
LayerCount: 2
Fore
SplineSet
750 699.438 m 5
 750 400 l 5
 50 400 l 5
 50 699.438 l 5
 150 699.438 l 5
 150 499.438 l 5
 650 499.438 l 5
 650 600.562 l 5
 250 600.562 l 5
 250 700 l 5
 750 700 l 5
 750 699.438 l 5
50 1.12695 m 5
 50 300 l 5
 750 300 l 5
 750 1.12695 l 5
 750 0.5625 l 5
 250 0.5625 l 5
 250 100 l 5
 650 100 l 5
 650 200.562 l 5
 150 200.562 l 5
 150 1.12695 l 5
 50 1.12695 l 5
EndSplineSet
Validated: 1
EndChar

StartChar: C
Encoding: 67 67 2
Width: 800
VWidth: 0
Flags: W
HStem: 0.5625 99.4375<150 650> 200.562 99.438<250 650> 400 99.438<250 650> 600.562 99.438<150 650>
VStem: 50 100<100 600.562> 650 100<100 200.562 499.438 600.562>
LayerCount: 2
Fore
SplineSet
750 700 m 5
 750 699.438 l 5
 750 400 l 5
 250 400 l 5
 250 499.438 l 5
 650 499.438 l 5
 650 600.562 l 5
 150 600.562 l 5
 150 100 l 5
 650 100 l 5
 650 200.562 l 5
 250 200.562 l 5
 250 300 l 5
 750 300 l 5
 750 0.5625 l 5
 50 0.5625 l 5
 50 699.438 l 5
 50 700 l 5
 750 700 l 5
EndSplineSet
Validated: 1
EndChar

StartChar: D
Encoding: 68 68 3
Width: 800
VWidth: 0
Flags: W
HStem: 0.5625 99.4375<250 650> 200.562 99.438<150 450> 400.562 99.438<150 450> 600 99.438<250 650>
VStem: 50 100<0.5625 200.562 400 400.562 500 699.438> 450 100<300 400.562> 650 100<100 600>
LayerCount: 2
Fore
SplineSet
250 699.438 m 5
 750 699.438 l 5
 750 0.5625 l 5
 250 0.5625 l 5
 250 100 l 5
 650 100 l 5
 650 600 l 5
 250 600 l 5
 250 699.438 l 5
550 200.562 m 5
 150 200.562 l 5
 150 0.5625 l 5
 50 0.5625 l 5
 50 300 l 5
 450 300 l 5
 450 400.562 l 5
 150 400.562 l 5
 150 400 l 5
 50 400 l 5
 50 400.562 l 5
 50 699.438 l 5
 150 699.438 l 5
 150 500 l 5
 550 500 l 5
 550 200.562 l 5
EndSplineSet
Validated: 1
EndChar

StartChar: E
Encoding: 69 69 4
Width: 800
VWidth: 0
Flags: W
HStem: 0 21G<50 750> 0 21G<50 750> 200 99.438<150 750> 400 99.438<150 750> 680 20G<50 750> 680 20G<50 750>
VStem: 50 100<99.4375 200 499.438 600>
LayerCount: 2
Fore
SplineSet
50 700 m 5x3a
 750 699.438 l 5
 750 600 l 5
 150 600 l 5
 150 499.438 l 5
 750 499.438 l 5
 750 400 l 5
 50 400 l 5
 50 400.562 l 5
 50 699.438 l 5
 50 700 l 5x3a
50 299.438 m 5
 150 299.438 l 5
 750 299.438 l 5
 750 200 l 5
 150 200 l 5
 150 99.4375 l 5
 750 99.4375 l 5
 750 0 l 5xb2
 50 0.5625 l 5
 50 299.438 l 5
EndSplineSet
Validated: 1
EndChar

StartChar: F
Encoding: 70 70 5
Width: 800
VWidth: 0
Flags: W
HStem: 0.5625 99.4375<150 250 550 750> 200 100<550 750> 400.562 99.438<350 750> 680 20G<50 750> 680 20G<50 750>
VStem: 50 100<100 600> 250 100<100 400.562> 450 300<0.5625 100 200 300> 450 100<100 200>
LayerCount: 2
Fore
SplineSet
50 700 m 5xf7
 750 699.438 l 5
 750 600 l 5
 150 600 l 5
 150 100 l 5
 250 100 l 5
 250 500 l 5
 750 500 l 5
 750 400.562 l 5
 350 400.562 l 5
 350 0.5625 l 5
 50 0.5625 l 5
 50 699.438 l 5
 50 700 l 5xf7
450 300 m 5
 750 300 l 5
 750 200 l 5xe7
 550 200 l 5
 550 100 l 5xe680
 750 100 l 5
 750 0.5625 l 5xe7
 550 0.5625 l 5xe680
 450 0.5625 l 5
 450 299.438 l 5
 450 300 l 5
EndSplineSet
Validated: 1
EndChar

StartChar: G
Encoding: 71 71 6
Width: 800
VWidth: 0
Flags: W
HStem: 0 21G<50 750> 0 21G<50 750> 200.562 99.438<350 550> 400.562 99.438<350 650> 680 20G<50 750> 680 20G<50 750>
VStem: 50 100<100 600> 250 100<300 400.562> 650 100<100 400.562>
LayerCount: 2
Fore
SplineSet
750 600 m 5xbb80
 150 600 l 5
 150 100 l 5
 650 100 l 5
 650 400.562 l 5
 350 400.562 l 5
 350 300 l 5
 550 300 l 5
 550 200.562 l 5
 350 200.562 l 5
 250 200.562 l 5
 250 500 l 5
 750 500 l 5
 750 499.438 l 5
 750 0.5625 l 5
 750 0 l 5
 50 0.5625 l 5
 50 699.438 l 5
 50 700 l 5
 750 699.438 l 5
 750 600 l 5xbb80
EndSplineSet
Validated: 1
EndChar

StartChar: H
Encoding: 72 72 7
Width: 800
VWidth: 0
Flags: W
HStem: 0.5625 99.4375<150 350 450 650> 200.562 99.438<150 650> 400 100<150 650> 600 99.438<150 350 450 650>
VStem: 50 300<0.5625 100 600 699.438> 50 100<100 200.562 500 600> 450 300<0.5625 100 600 699.438> 650 100<100 200.562 500 600>
LayerCount: 2
Fore
SplineSet
650 699.438 m 5xf1
 750 699.438 l 5
 750 600 l 5xf2
 750 500 l 5
 750 400.562 l 5
 750 400 l 5
 50 400 l 5
 50 400.562 l 5
 50 500 l 5xf5
 50 600 l 5
 50 699.438 l 5xf8
 150 699.438 l 5xf4
 350 699.438 l 5
 350 600 l 5xf8
 150 600 l 5
 150 500 l 5
 650 500 l 5
 650 600 l 5xf5
 450 600 l 5
 450 699.438 l 5xf2
 650 699.438 l 5xf1
50 300 m 5xf4
 750 300 l 5xf5
 750 0.5625 l 5
 450 0.5625 l 5
 450 100 l 5xf2
 650 100 l 5
 650 200.562 l 5
 150 200.562 l 5
 150 100 l 5xf5
 350 100 l 5
 350 0.5625 l 5
 50 0.5625 l 5xf8
 50 300 l 5xf4
EndSplineSet
Validated: 1
EndChar

StartChar: Y
Encoding: 89 89 8
Width: 800
VWidth: 0
Flags: W
HStem: 0 100<50.2812 250.844 549.72 749.719> 200 100<150.844 250.844 549.72 649.719> 600.001 100<150.844 250.844 549.72 649.719> 680 20.001G<50.8438 51.4072 450.281 450.282 749.155 749.719>
VStem: 50.8438 100<300 600.001> 250.844 99.4375<400.001 600.001> 450.281 99.4385<100 200> 649.719 100<300 600>
LayerCount: 2
Fore
SplineSet
749.155 700 m 5xcf
 749.719 700 l 5
 749.719 200 l 5
 549.72 200 l 5
 549.72 100 l 5
 749.719 100 l 5
 749.719 0 l 5
 549.72 0 l 5
 450.282 0 l 5
 450.281 0 l 5
 450.281 300 l 5
 450.282 300 l 5
 649.719 300 l 5
 649.719 600 l 5
 549.72 600 l 5
 549.72 400 l 5
 450.282 400 l 5
 450.281 700 l 5
 450.282 700 l 5
 749.155 700 l 5xcf
51.4072 700.001 m 5xdf
 350.281 700.001 l 5xdf
 350.281 400.001 l 5
 250.844 400.001 l 5
 250.844 600.001 l 5
 150.844 600.001 l 5xef
 150.844 300 l 5
 350.281 300 l 5
 350.281 200 l 5
 350.28 0.000976562 l 5
 349.72 0.000976562 l 5
 349.72 0 l 5
 50.2812 0 l 5
 50.2812 100 l 5
 250.844 100 l 5
 250.844 200 l 5
 50.8438 200 l 5
 50.8438 700.001 l 5
 51.4072 700.001 l 5xdf
EndSplineSet
Validated: 1
EndChar

StartChar: Z
Encoding: 90 90 9
Width: 800
VWidth: 0
Flags: W
HStem: 0 100.001<150.281 749.715> 199.999 100.001<150.281 749.715> 400 100.001<50.2812 650.281> 599.999 100.001<50.2812 650.281>
VStem: 50.2812 100<100.001 199.999>
LayerCount: 2
Fore
SplineSet
749.715 700 m 5
 749.719 400 l 5
 749.715 400 l 5
 50.2812 400 l 5
 50.2812 500.001 l 5
 650.281 500.001 l 5
 650.281 599.999 l 5
 50.2812 599.999 l 5
 50.2812 700 l 5
 749.715 700 l 5
50.8438 300 m 5
 749.715 300 l 5
 749.715 199.999 l 5
 150.281 199.999 l 5
 150.281 100.001 l 5
 749.715 100.001 l 5
 749.715 0 l 5
 150.281 0 l 5
 50.8438 0 l 5
 50.2812 0 l 5
 50.2812 300 l 5
 50.8438 300 l 5
EndSplineSet
Validated: 1
EndChar

StartChar: I
Encoding: 73 73 10
Width: 800
VWidth: 0
Flags: W
HStem: 0 300<50.5625 150 650 749.438> 0 100<150 250 549.438 650> 400 300<50.5625 150 650 749.438> 600 100<150 250 549.438 650>
VStem: 50.5625 99.4375<100 300 400 600> 250 100<100 600> 450 99.4375<100 600> 650 99.4375<100 300 400 600>
LayerCount: 2
Fore
SplineSet
50.5625 700 m 1x2f
 349.438 700 l 1
 350 700 l 1
 350 0 l 1
 349.438 0 l 1
 250 0 l 1x5f
 150 0 l 1
 50.5625 0 l 1
 50.5625 300 l 1
 150 300 l 1x8f
 150 100 l 1
 250 100 l 1
 250 600 l 1
 150 600 l 1x5f
 150 400 l 1
 50.5625 400 l 1
 50.5625 700 l 1x2f
450 700 m 1
 749.438 700 l 1
 749.438 400 l 1
 650 400 l 1x2f
 650 600 l 1
 549.438 600 l 1
 549.438 100 l 1
 650 100 l 1x5f
 650 300 l 1
 749.438 300 l 1
 749.438 0 l 1
 650 0 l 1x8f
 549.438 0 l 1
 450 0 l 1
 450 700 l 1
EndSplineSet
Validated: 1
EndChar

StartChar: J
Encoding: 74 74 11
Width: 800
VWidth: 0
Flags: W
HStem: 0 21G<50 750> 0 21G<50 750> 200.562 99.438<250 450> 400.562 99.438<150 450> 680 20G<50 750> 680 20G<50 750>
VStem: 50 100<100 400.562> 450 100<300 400.562> 650 100<100 600>
LayerCount: 2
Fore
SplineSet
50 699.438 m 5xbb80
 750 700 l 5
 750 699.438 l 5
 750 0.5625 l 5
 50 0 l 5
 50 0.5625 l 5
 50 499.438 l 5
 50 500 l 5
 550 500 l 5
 550 200.562 l 5
 250 200.562 l 5
 250 300 l 5
 450 300 l 5
 450 400.562 l 5
 150 400.562 l 5
 150 100 l 5
 650 100 l 5
 650 600 l 5
 50 600 l 5
 50 699.438 l 5xbb80
EndSplineSet
Validated: 1
EndChar

StartChar: K
Encoding: 75 75 12
Width: 800
VWidth: 0
Flags: W
HStem: 0.5625 99.4375<350 650> 200.562 99.438<150 250 450 650> 400 99.438<150 250 450 650> 680 19.438G<50 150 250 750> 680 19.438G<50 150 250 750>
VStem: 50 100<0.5625 200.562 499.438 699.438> 250 100<100 200.562 499.438 600> 450 300<200 299.438 400 500> 650 100<100 200 500 600>
LayerCount: 2
Fore
SplineSet
250 699.438 m 5xf680
 750 700 l 5
 750 699.438 l 5xf680
 750 400.562 l 5
 750 400 l 5
 450 400 l 5
 450 500 l 5xf7
 650 500 l 5
 650 600 l 5
 350 600 l 5
 350 400 l 5
 50 400 l 5
 50 499.438 l 5
 50 699.438 l 5
 150 699.438 l 5
 150 499.438 l 5
 250 499.438 l 5
 250 699.438 l 5xf680
450 200 m 5xe7
 450 299.438 l 5
 750 299.438 l 5xe7
 750 0.5625 l 5
 250 0.5625 l 5
 250 200.562 l 5
 150 200.562 l 5
 150 0.5625 l 5
 50 0.5625 l 5
 50 300 l 5
 350 300 l 5
 350 100 l 5
 650 100 l 5
 650 200 l 5xe680
 450 200 l 5xe7
EndSplineSet
Validated: 1
EndChar

StartChar: L
Encoding: 76 76 13
Width: 800
VWidth: 0
Flags: W
HStem: 0.5625 99.4375<150 650> 200.562 99.438<350 650> 400 300<450 550 650 750> 400 99.438<550 650>
VStem: 50 100<100 700> 250 100<300 700> 450 100<499.438 700> 650 100<100 200.562 499.438 700>
LayerCount: 2
Fore
SplineSet
650 499.438 m 5xdf
 650 700 l 5
 750 700 l 5
 750 400.562 l 5
 750 400 l 5
 450 400 l 5
 450 400.562 l 5
 450 700 l 5
 550 700 l 5xef
 550 499.438 l 5
 650 499.438 l 5xdf
350 300 m 5
 750 300 l 5
 750 0.5625 l 5
 50 0.5625 l 5
 50 700 l 5
 150 700 l 5
 150 100 l 5
 650 100 l 5
 650 200.562 l 5
 250 200.562 l 5
 250 700 l 5
 350 700 l 5
 350 300 l 5
EndSplineSet
Validated: 1
EndChar

StartChar: M
Encoding: 77 77 14
Width: 800
VWidth: 0
Flags: W
HStem: 0.5625 99.4375<350 450> 600.562 99.438<150 250 550 650>
VStem: 50 100<0.5625 600.562> 250 100<100 600.562> 450 100<100 600.562> 650 100<0.5625 600.562>
LayerCount: 2
Fore
SplineSet
450 700 m 5
 750 700 l 5
 750 0.5625 l 5
 650 0.5625 l 5
 650 600.562 l 5
 550 600.562 l 5
 550 100 l 5
 550 0.5625 l 5
 250 0.5625 l 5
 250 600.562 l 5
 150 600.562 l 5
 150 0.5625 l 5
 50 0.5625 l 5
 50 700 l 5
 350 700 l 5
 350 100 l 5
 450 100 l 5
 450 700 l 5
EndSplineSet
Validated: 1
EndChar

StartChar: N
Encoding: 78 78 15
Width: 800
VWidth: 0
Flags: W
HStem: 0.5625 99.4375<550 650> 600.562 99.438<150 250>
VStem: 50 100<0.5625 600.562> 250 100<0.5625 600.562> 450 100<100 700> 650 100<100 700>
LayerCount: 2
Fore
SplineSet
650 100 m 5
 650 700 l 5
 750 700 l 5
 750 0.5625 l 5
 650 0.5625 l 5
 550 0.5625 l 5
 450 0.5625 l 5
 450 700 l 5
 550 700 l 5
 550 100 l 5
 650 100 l 5
50 700 m 5
 350 700 l 5
 350 0.5625 l 5
 250 0.5625 l 5
 250 600.562 l 5
 150 600.562 l 5
 150 0.5625 l 5
 50 0.5625 l 5
 50 700 l 5
EndSplineSet
Validated: 1
EndChar

StartChar: O
Encoding: 79 79 16
Width: 800
VWidth: 0
Flags: W
HStem: 0 300<250 349.438 450.562 550> 0 100<149.438 250 550 650> 400 300<250 349.438 450.562 550> 600 100<149.438 250 550 650>
VStem: 50 99.438<100 600> 250 99.438<100 300 400 600> 450.562 99.438<100 300 400 600> 650 100<100 600>
LayerCount: 2
Fore
SplineSet
450.562 700 m 5x2f
 749.437 700 l 5
 750 700 l 5
 750 0 l 5
 749.437 0 l 5
 650 0 l 5x5f
 550 0 l 5
 450.562 0 l 5
 450.562 300 l 5
 550 300 l 5x8f
 550 100 l 5
 650 100 l 5
 650 600 l 5
 550 600 l 5x5f
 550 400 l 5
 450.562 400 l 5
 450.562 700 l 5x2f
50 700 m 5
 349.438 700 l 5
 349.438 400 l 5
 250 400 l 5x2f
 250 600 l 5
 149.438 600 l 5
 149.438 100 l 5
 250 100 l 5x5f
 250 300 l 5
 349.438 300 l 5x8f
 349.438 100 l 5x4f
 349.438 0 l 5
 250 0 l 5x8f
 149.438 0 l 5
 50 0 l 5
 50 100 l 5
 50 700 l 5
EndSplineSet
Validated: 1
EndChar

StartChar: P
Encoding: 80 80 17
Width: 800
VWidth: 0
Flags: W
HStem: 0.5625 299.438<450 550 650 750> 200.562 99.438<550 650> 600.562 99.438<150 650>
VStem: 50 100<0.5625 600.562> 250 100<0.5625 400> 450 100<0.5625 200.562> 650 100<0.5625 200.562 499.438 600.562>
LayerCount: 2
Fore
SplineSet
50 700 m 5xbe
 750 700 l 5
 750 699.438 l 5
 750 400 l 5
 650 400 l 5
 350 400 l 5
 350 0.5625 l 5
 250 0.5625 l 5
 250 499.438 l 5
 250 500 l 5
 650 499.438 l 5
 650 600.562 l 5
 150 600.562 l 5
 150 0.5625 l 5
 50 0.5625 l 5
 50 700 l 5xbe
450 300 m 5
 750 300 l 5
 750 0.5625 l 5
 650 0.5625 l 5xbe
 650 200.562 l 5
 550 200.562 l 5x7e
 550 0.5625 l 5
 450 0.5625 l 5
 450 300 l 5
EndSplineSet
Validated: 1
EndChar

StartChar: Q
Encoding: 81 81 18
Width: 800
VWidth: 0
Flags: W
HStem: 0 100<150.562 250.562 549.438 749.438> 0.000976562 21G<50.5625 150.562> 200 100<549.438 649.438> 600.001 100<150.562 250.562 549.438 649.438> 680 20.001G<50.5625 51.126 450 450.001 748.874 749.438>
VStem: 50.5625 99.999<100.001 600.001> 250.562 99.4385<100.001 300.001 400.001 600.001> 450 99.4375<100 200> 649.438 100<300 600>
LayerCount: 2
Fore
SplineSet
748.874 700 m 1xa780
 749.438 700 l 1
 749.438 200 l 1
 549.438 200 l 1
 549.438 100 l 1
 749.438 100 l 1
 749.438 0 l 1
 450.001 0 l 1
 450 0 l 1
 450 300 l 1
 450.001 300 l 1
 649.438 300 l 1
 649.438 600 l 1
 549.438 600 l 1
 549.438 400 l 1
 450.001 400 l 1
 450 700 l 1
 450.001 700 l 1
 748.874 700 l 1xa780
51.126 700.001 m 1x6f80
 350 700.001 l 1x6f80
 350 400.001 l 1
 250.562 400.001 l 1
 250.562 600.001 l 1
 150.562 600.001 l 1x3780
 150.562 100.001 l 1
 250.562 100.001 l 1
 250.562 300.001 l 1
 350 300.001 l 1
 350 0.000976562 l 1
 349.999 0.000976562 l 1
 250.562 0.000976562 l 1
 150.562 0.000976562 l 1
 51.126 0.000976562 l 1
 50.5625 0.000976562 l 1
 50.5625 700.001 l 1
 51.126 700.001 l 1x6f80
EndSplineSet
Validated: 1
EndChar

StartChar: R
Encoding: 82 82 19
Width: 800
VWidth: 0
Flags: W
HStem: 0 100<350 650> 200 100<149.438 250.001 450 650> 400 100<150 650.562> 600 100<250.562 650.562>
VStem: 50.5625 99.4375<500 700> 650 100<100 200 500 600>
LayerCount: 2
Fore
SplineSet
250.562 600 m 5
 250.562 700 l 5
 750 700 l 5
 750 400 l 5
 50.5625 400 l 5
 50.5625 700 l 5
 150 700 l 5
 150 500 l 5
 650.562 500 l 5
 650.562 600 l 5
 250.562 600 l 5
749.438 300 m 5
 750 300 l 5
 750 0 l 5
 748.875 0 l 5
 650 0 l 5
 449.438 0 l 5
 250.001 0 l 5
 250.001 200 l 5
 149.438 200 l 5
 149.438 0 l 5
 50.001 0 l 5
 50 300 l 5
 50.001 300 l 5
 349.438 300 l 5
 350 100 l 5
 650 100 l 5
 650 200 l 5
 450 200 l 5
 450 300 l 5
 749.438 300 l 5
EndSplineSet
Validated: 1
EndChar

StartChar: S
Encoding: 83 83 20
Width: 800
VWidth: 0
Flags: W
HStem: 0 100<50 650.562> 200 100<50.5625 650.562> 400 100<149.438 749.438> 600 100<149.438 750>
LayerCount: 2
Fore
SplineSet
750 600 m 5
 149.438 600 l 5
 149.438 500 l 5
 749.438 500 l 5
 749.438 400 l 5
 149.438 400 l 5
 50.001 400 l 5
 50 400 l 5
 50.001 700 l 5
 50.5625 700 l 5
 750 700 l 5
 750 600 l 5
50 100 m 5
 650.562 100 l 5
 650.562 200 l 5
 50.5625 200 l 5
 50.5625 300 l 5
 650.562 300 l 5
 749.999 300 l 5
 750 300 l 5
 749.999 0 l 5
 749.438 0 l 5
 50 0 l 5
 50 100 l 5
EndSplineSet
Validated: 5
EndChar

StartChar: T
Encoding: 84 84 21
Width: 800
VWidth: 0
Flags: W
HStem: 0.282227 21G<50 350 450 750> 0.282227 21G<50 350 450 750> 679.72 20G<50 350 450 750> 679.72 20G<50 350 450 750>
VStem: 49.999 100<200 600.282> 250 100<100 600.282> 450 100<100 600.282> 650.001 100<200 600.282>
LayerCount: 2
Fore
SplineSet
50 699.719 m 5xaf
 350 699.72 l 5
 350 699.719 l 5
 350 600.282 l 5
 350 100 l 5
 350 0.5625 l 5
 350 0.282227 l 5
 50 0.5625 l 5
 50 100 l 5
 250 100 l 5
 250 600.282 l 5
 149.999 600.282 l 5
 149.999 200 l 5
 49.999 200 l 5
 49.999 699.438 l 5
 50 699.438 l 5
 50 699.719 l 5xaf
750 699.719 m 5
 750 699.438 l 5
 750.001 699.438 l 5
 750.001 200 l 5
 650.001 200 l 5
 650.001 600.282 l 5
 550 600.282 l 5
 550 100 l 5
 750 100 l 5
 750 0.5625 l 5
 450 0.282227 l 5
 450 0.5625 l 5
 450 100 l 5
 450 600.282 l 5
 450 699.719 l 5
 450 699.72 l 5
 750 699.719 l 5
EndSplineSet
Validated: 5
EndChar

StartChar: U
Encoding: 85 85 22
Width: 800
VWidth: 0
Flags: W
HStem: 0.282227 99.7178<149.999 650.002> 679.72 20G<49.999 349.999 450.002 750.002> 679.72 20G<49.999 349.999 450.002 750.002>
VStem: 250 100<200 600.282> 450 100<200 600.282> 650.002 100<100 600.282>
LayerCount: 2
Fore
SplineSet
450.002 699.719 m 1xdc
 750.002 699.72 l 1
 750.002 699.719 l 1
 750.002 0.282227 l 1
 49.999 0.282227 l 1
 49.999 0.5625 l 1
 49.998 0.5625 l 1
 49.999 699.719 l 1
 49.999 699.72 l 1
 349.999 699.719 l 1
 349.999 699.438 l 1
 350 699.438 l 1
 350 200 l 1
 250 200 l 1
 250 600.282 l 1
 149.999 600.282 l 1
 149.999 100 l 1
 650.002 100 l 1
 650.002 600.282 l 1
 550 600.282 l 1
 550 200 l 1
 450 200 l 1
 450 699.438 l 1
 450.002 699.438 l 1
 450.002 699.719 l 1xdc
EndSplineSet
Validated: 5
EndChar

StartChar: V
Encoding: 86 86 23
Width: 800
VWidth: 0
Flags: W
HStem: 0.282227 99.7178<49.998 50 150 650.002> 200 99.7168<350 450.002> 679.72 19.999G<50 350 450.002 750.002> 679.72 19.999G<50 350 450.002 750.002>
VStem: 50 100<100 600.282> 250 100<299.717 600> 450.002 100<299.717 600.282> 650.002 100<100 600.282>
LayerCount: 2
Fore
SplineSet
450.002 699.719 m 5xef
 750.002 699.72 l 5
 750.002 699.719 l 5
 750.002 0.282227 l 5
 50 0.282227 l 5
 50 0.5625 l 5
 49.998 0.5625 l 5
 49.998 100 l 5
 50 100 l 5
 50 699.718 l 5
 50 699.719 l 5
 350 699.718 l 5
 350 699.436 l 5
 350 699.438 l 5
 350 299.717 l 5
 450.002 299.717 l 5
 450.002 699.438 l 5
 450.002 699.719 l 5xef
650.002 100 m 5
 650.002 600.282 l 5
 550.002 600.282 l 5
 550.002 299.717 l 5
 550.002 200.282 l 5
 550.002 200 l 5
 250.002 200 l 5
 250.002 200.282 l 5
 250 200.562 l 5
 250 600 l 5
 250.285 600.282 l 5
 150 600.282 l 5
 150 100 l 5
 650.002 100 l 5
EndSplineSet
Validated: 5
EndChar

StartChar: W
Encoding: 87 87 24
Width: 800
VWidth: 0
Flags: W
HStem: 0.282227 21G<49.999 350.001 450.001 750.001> 0.282227 21G<49.999 350.001 450.001 750.001> 600 100<350.001 450.001>
VStem: 49.999 100<100 699.72> 250.001 100<100 600> 450.001 100<100 600> 650.001 100<100 699.72>
LayerCount: 2
Fore
SplineSet
650.001 100 m 5xbe
 650.001 699.72 l 5
 750.001 699.72 l 5
 750.001 0.5625 l 5
 750.001 0.282227 l 5
 450.001 0.5625 l 5
 450.001 600 l 5
 350.001 600 l 5
 350.001 0.5625 l 5
 49.999 0.282227 l 5
 49.999 0.5625 l 5
 49.999 699.72 l 5
 149.999 699.72 l 5
 149.999 100 l 5
 250.001 100 l 5
 250.001 699.438 l 5
 250.001 700 l 5
 550.001 700 l 5
 550.001 699.438 l 5
 550.001 100 l 5
 650.001 100 l 5xbe
EndSplineSet
Validated: 1
EndChar

StartChar: X
Encoding: 88 88 25
Width: 800
VWidth: 0
Flags: W
HStem: 0.5625 99.4375<149.999 349.999 450.001 649.999> 200.562 99.4385<149.999 249.999 549.999 649.999> 680 20G<49.999 349.999 450.001 749.999> 680 20G<49.999 349.999 450.001 749.999>
VStem: 49.999 100<100 200.562 499.438 600> 249.999 100<300 400> 449.999 100<300 400> 649.999 100.002<100 200.562 499.438 600>
LayerCount: 2
Fore
SplineSet
49.999 700 m 5xef
 349.999 699.438 l 5
 349.999 600 l 5
 149.999 600 l 5
 149.999 499.438 l 5
 349.999 500 l 5
 349.999 499.438 l 5
 349.999 200.562 l 5
 149.999 200.562 l 5
 149.999 100 l 5
 349.999 100 l 5
 349.999 0.5625 l 5
 49.999 0.5625 l 5
 49.999 300 l 5
 249.999 300 l 5
 249.999 400 l 5
 49.999 400 l 5
 49.999 400.562 l 5
 49.999 699.438 l 5
 49.999 700 l 5xef
750.001 699.438 m 5
 750.001 400 l 5
 549.999 400 l 5
 549.999 300 l 5
 749.999 300 l 5
 750.001 300 l 5
 750.001 0.5625 l 5
 749.999 0.5625 l 5
 450.001 0.5625 l 5
 450.001 100 l 5
 649.999 100 l 5
 649.999 200.562 l 5
 449.999 200.562 l 5
 449.999 500 l 5
 649.999 499.438 l 5
 649.999 600 l 5
 450.001 600 l 5
 450.001 699.438 l 5
 749.999 700 l 5
 749.999 699.438 l 5
 750.001 699.438 l 5
EndSplineSet
Validated: 1
EndChar

StartChar: v
Encoding: 118 118 26
Width: 800
VWidth: 0
Flags: W
HStem: 0.282227 99.7178<49.998 50 150 650.002> 200 99.7168<350 450.002> 679.72 19.999G<50 350 450.002 750.002> 679.72 19.999G<50 350 450.002 750.002>
VStem: 50 100<100 600.282> 250 100<299.717 600> 450.002 100<299.717 600.282> 650.002 100<100 600.282>
LayerCount: 2
Fore
SplineSet
450.002 699.719 m 1xef
 750.002 699.72 l 1
 750.002 699.719 l 1
 750.002 0.282227 l 1
 50 0.282227 l 1
 50 0.5625 l 1
 49.998 0.5625 l 1
 49.998 100 l 1
 50 100 l 1
 50 699.718 l 1
 50 699.719 l 1
 350 699.718 l 1
 350 699.436 l 1
 350 699.438 l 1
 350 299.717 l 1
 450.002 299.717 l 1
 450.002 699.438 l 1
 450.002 699.719 l 1xef
650.002 100 m 1
 650.002 600.282 l 1
 550.002 600.282 l 1
 550.002 299.717 l 1
 550.002 200.282 l 1
 550.002 200 l 1
 250.002 200 l 1
 250.002 200.282 l 1
 250 200.562 l 1
 250 600 l 1
 250.285 600.282 l 1
 150 600.282 l 1
 150 100 l 1
 650.002 100 l 1
EndSplineSet
Validated: 5
EndChar

StartChar: t
Encoding: 116 116 27
Width: 800
VWidth: 0
Flags: W
HStem: 0.282227 21G<50 350 450 750> 0.282227 21G<50 350 450 750> 679.72 20G<50 350 450 750> 679.72 20G<50 350 450 750>
VStem: 49.999 100<200 600.282> 250 100<100 600.282> 450 100<100 600.282> 650.001 100<200 600.282>
LayerCount: 2
Fore
SplineSet
50 699.719 m 5xaf
 350 699.72 l 5
 350 699.719 l 5
 350 600.282 l 5
 350 100 l 5
 350 0.5625 l 5
 350 0.282227 l 5
 50 0.5625 l 5
 50 100 l 5
 250 100 l 5
 250 600.282 l 5
 149.999 600.282 l 5
 149.999 200 l 5
 49.999 200 l 5
 49.999 699.438 l 5
 50 699.438 l 5
 50 699.719 l 5xaf
750 699.719 m 5
 750 699.438 l 5
 750.001 699.438 l 5
 750.001 200 l 5
 650.001 200 l 5
 650.001 600.282 l 5
 550 600.282 l 5
 550 100 l 5
 750 100 l 5
 750 0.5625 l 5
 450 0.282227 l 5
 450 0.5625 l 5
 450 100 l 5
 450 600.282 l 5
 450 699.719 l 5
 450 699.72 l 5
 750 699.719 l 5
EndSplineSet
Validated: 5
EndChar

StartChar: f
Encoding: 102 102 28
Width: 800
VWidth: 0
Flags: W
HStem: 0.5625 99.4375<150 250 550 750> 200 100<550 750> 400.562 99.438<350 750> 680 20G<50 750> 680 20G<50 750>
VStem: 50 100<100 600> 250 100<100 400.562> 450 300<0.5625 100 200 300> 450 100<100 200>
LayerCount: 2
Fore
SplineSet
50 700 m 5xf7
 750 699.438 l 5
 750 600 l 5
 150 600 l 5
 150 100 l 5
 250 100 l 5
 250 500 l 5
 750 500 l 5
 750 400.562 l 5
 350 400.562 l 5
 350 0.5625 l 5
 50 0.5625 l 5
 50 699.438 l 5
 50 700 l 5xf7
450 300 m 5
 750 300 l 5
 750 200 l 5xe7
 550 200 l 5
 550 100 l 5xe680
 750 100 l 5
 750 0.5625 l 5xe7
 550 0.5625 l 5xe680
 450 0.5625 l 5
 450 299.438 l 5
 450 300 l 5
EndSplineSet
Validated: 1
EndChar

StartChar: a
Encoding: 97 97 30
Width: 800
VWidth: 0
Flags: W
HStem: 0 21G<50 150 250 350 450 550 650 750> 0 21G<50 150 250 350 450 550 650 750> 400 99.438<350 450> 600.562 99.438<150 650>
VStem: 50 100<0 600.562> 250 100<0 400> 450 100<0 400> 650 100<0 600.562>
LayerCount: 2
Fore
SplineSet
250 499.438 m 1xbf
 550 499.438 l 1
 550 400 l 1
 550 0 l 1
 450 0 l 1
 450 400 l 1
 350 400 l 1
 350 0 l 1
 250 0 l 1
 250 499.438 l 1xbf
50 699.438 m 1
 50 700 l 1
 750 700 l 1
 750 699.438 l 1
 750 0 l 1
 650 0 l 1
 650 600.562 l 1
 150 600.562 l 1
 150 0 l 1
 50 0 l 1
 50 699.438 l 1
EndSplineSet
Validated: 1
EndChar

StartChar: b
Encoding: 98 98 31
Width: 800
VWidth: 0
Flags: W
HStem: 0.5625 99.4375<250 650> 200.562 99.438<150 650> 400 99.438<150 650> 600.562 99.438<250 650>
VStem: 50 100<1.12695 200.562 499.438 699.438> 650 100<100 200.562 499.438 600.562>
LayerCount: 2
Fore
SplineSet
750 699.438 m 5
 750 400 l 5
 50 400 l 5
 50 699.438 l 5
 150 699.438 l 5
 150 499.438 l 5
 650 499.438 l 5
 650 600.562 l 5
 250 600.562 l 5
 250 700 l 5
 750 700 l 5
 750 699.438 l 5
50 1.12695 m 5
 50 300 l 5
 750 300 l 5
 750 1.12695 l 5
 750 0.5625 l 5
 250 0.5625 l 5
 250 100 l 5
 650 100 l 5
 650 200.562 l 5
 150 200.562 l 5
 150 1.12695 l 5
 50 1.12695 l 5
EndSplineSet
Validated: 1
EndChar

StartChar: c
Encoding: 99 99 32
Width: 800
VWidth: 0
Flags: W
HStem: 0.5625 99.4375<150 650> 200.562 99.438<250 650> 400 99.438<250 650> 600.562 99.438<150 650>
VStem: 50 100<100 600.562> 650 100<100 200.562 499.438 600.562>
LayerCount: 2
Fore
SplineSet
750 700 m 5
 750 699.438 l 5
 750 400 l 5
 250 400 l 5
 250 499.438 l 5
 650 499.438 l 5
 650 600.562 l 5
 150 600.562 l 5
 150 100 l 5
 650 100 l 5
 650 200.562 l 5
 250 200.562 l 5
 250 300 l 5
 750 300 l 5
 750 0.5625 l 5
 50 0.5625 l 5
 50 699.438 l 5
 50 700 l 5
 750 700 l 5
EndSplineSet
Validated: 1
EndChar

StartChar: d
Encoding: 100 100 33
Width: 800
VWidth: 0
Flags: W
HStem: 0.5625 99.4375<250 650> 200.562 99.438<150 450> 400.562 99.438<150 450> 600 99.438<250 650>
VStem: 50 100<0.5625 200.562 400 400.562 500 699.438> 450 100<300 400.562> 650 100<100 600>
LayerCount: 2
Fore
SplineSet
250 699.438 m 5
 750 699.438 l 5
 750 0.5625 l 5
 250 0.5625 l 5
 250 100 l 5
 650 100 l 5
 650 600 l 5
 250 600 l 5
 250 699.438 l 5
550 200.562 m 5
 150 200.562 l 5
 150 0.5625 l 5
 50 0.5625 l 5
 50 300 l 5
 450 300 l 5
 450 400.562 l 5
 150 400.562 l 5
 150 400 l 5
 50 400 l 5
 50 400.562 l 5
 50 699.438 l 5
 150 699.438 l 5
 150 500 l 5
 550 500 l 5
 550 200.562 l 5
EndSplineSet
Validated: 1
EndChar

StartChar: e
Encoding: 101 101 34
Width: 800
VWidth: 0
Flags: W
HStem: 0 21G<50 750> 0 21G<50 750> 200 99.438<150 750> 400 99.438<150 750> 680 20G<50 750> 680 20G<50 750>
VStem: 50 100<99.4375 200 499.438 600>
LayerCount: 2
Fore
SplineSet
50 700 m 5x3a
 750 699.438 l 5
 750 600 l 5
 150 600 l 5
 150 499.438 l 5
 750 499.438 l 5
 750 400 l 5
 50 400 l 5
 50 400.562 l 5
 50 699.438 l 5
 50 700 l 5x3a
50 299.438 m 5
 150 299.438 l 5
 750 299.438 l 5
 750 200 l 5
 150 200 l 5
 150 99.4375 l 5
 750 99.4375 l 5
 750 0 l 5xb2
 50 0.5625 l 5
 50 299.438 l 5
EndSplineSet
Validated: 1
EndChar

StartChar: g
Encoding: 103 103 35
Width: 800
VWidth: 0
Flags: W
HStem: 0 21G<50 750> 0 21G<50 750> 200.562 99.438<350 550> 400.562 99.438<350 650> 680 20G<50 750> 680 20G<50 750>
VStem: 50 100<100 600> 250 100<300 400.562> 650 100<100 400.562>
LayerCount: 2
Fore
SplineSet
750 600 m 5xbb80
 150 600 l 5
 150 100 l 5
 650 100 l 5
 650 400.562 l 5
 350 400.562 l 5
 350 300 l 5
 550 300 l 5
 550 200.562 l 5
 350 200.562 l 5
 250 200.562 l 5
 250 500 l 5
 750 500 l 5
 750 499.438 l 5
 750 0.5625 l 5
 750 0 l 5
 50 0.5625 l 5
 50 699.438 l 5
 50 700 l 5
 750 699.438 l 5
 750 600 l 5xbb80
EndSplineSet
Validated: 1
EndChar

StartChar: h
Encoding: 104 104 36
Width: 800
VWidth: 0
Flags: W
HStem: 0.5625 99.4375<150 350 450 650> 200.562 99.438<150 650> 400 100<150 650> 600 99.438<150 350 450 650>
VStem: 50 300<0.5625 100 600 699.438> 50 100<100 200.562 500 600> 450 300<0.5625 100 600 699.438> 650 100<100 200.562 500 600>
LayerCount: 2
Fore
SplineSet
650 699.438 m 5xf1
 750 699.438 l 5
 750 600 l 5xf2
 750 500 l 5
 750 400.562 l 5
 750 400 l 5
 50 400 l 5
 50 400.562 l 5
 50 500 l 5xf5
 50 600 l 5
 50 699.438 l 5xf8
 150 699.438 l 5xf4
 350 699.438 l 5
 350 600 l 5xf8
 150 600 l 5
 150 500 l 5
 650 500 l 5
 650 600 l 5xf5
 450 600 l 5
 450 699.438 l 5xf2
 650 699.438 l 5xf1
50 300 m 5xf4
 750 300 l 5xf5
 750 0.5625 l 5
 450 0.5625 l 5
 450 100 l 5xf2
 650 100 l 5
 650 200.562 l 5
 150 200.562 l 5
 150 100 l 5xf5
 350 100 l 5
 350 0.5625 l 5
 50 0.5625 l 5xf8
 50 300 l 5xf4
EndSplineSet
Validated: 1
EndChar

StartChar: i
Encoding: 105 105 37
Width: 800
VWidth: 0
Flags: W
HStem: 0 300<50.5625 150 650 749.438> 0 100<150 250 549.438 650> 400 300<50.5625 150 650 749.438> 600 100<150 250 549.438 650>
VStem: 50.5625 99.4375<100 300 400 600> 250 100<100 600> 450 99.4375<100 600> 650 99.4375<100 300 400 600>
LayerCount: 2
Fore
SplineSet
50.5625 700 m 1x2f
 349.438 700 l 1
 350 700 l 1
 350 0 l 1
 349.438 0 l 1
 250 0 l 1x5f
 150 0 l 1
 50.5625 0 l 1
 50.5625 300 l 1
 150 300 l 1x8f
 150 100 l 1
 250 100 l 1
 250 600 l 1
 150 600 l 1x5f
 150 400 l 1
 50.5625 400 l 1
 50.5625 700 l 1x2f
450 700 m 1
 749.438 700 l 1
 749.438 400 l 1
 650 400 l 1x2f
 650 600 l 1
 549.438 600 l 1
 549.438 100 l 1
 650 100 l 1x5f
 650 300 l 1
 749.438 300 l 1
 749.438 0 l 1
 650 0 l 1x8f
 549.438 0 l 1
 450 0 l 1
 450 700 l 1
EndSplineSet
Validated: 1
EndChar

StartChar: j
Encoding: 106 106 38
Width: 800
VWidth: 0
Flags: W
HStem: 0 21G<50 750> 0 21G<50 750> 200.562 99.438<250 450> 400.562 99.438<150 450> 680 20G<50 750> 680 20G<50 750>
VStem: 50 100<100 400.562> 450 100<300 400.562> 650 100<100 600>
LayerCount: 2
Fore
SplineSet
50 699.438 m 5xbb80
 750 700 l 5
 750 699.438 l 5
 750 0.5625 l 5
 50 0 l 5
 50 0.5625 l 5
 50 499.438 l 5
 50 500 l 5
 550 500 l 5
 550 200.562 l 5
 250 200.562 l 5
 250 300 l 5
 450 300 l 5
 450 400.562 l 5
 150 400.562 l 5
 150 100 l 5
 650 100 l 5
 650 600 l 5
 50 600 l 5
 50 699.438 l 5xbb80
EndSplineSet
Validated: 1
EndChar

StartChar: k
Encoding: 107 107 39
Width: 800
VWidth: 0
Flags: W
HStem: 0.5625 99.4375<350 650> 200.562 99.438<150 250 450 650> 400 99.438<150 250 450 650> 680 19.438G<50 150 250 750> 680 19.438G<50 150 250 750>
VStem: 50 100<0.5625 200.562 499.438 699.438> 250 100<100 200.562 499.438 600> 450 300<200 299.438 400 500> 650 100<100 200 500 600>
LayerCount: 2
Fore
SplineSet
250 699.438 m 5xf680
 750 700 l 5
 750 699.438 l 5xf680
 750 400.562 l 5
 750 400 l 5
 450 400 l 5
 450 500 l 5xf7
 650 500 l 5
 650 600 l 5
 350 600 l 5
 350 400 l 5
 50 400 l 5
 50 499.438 l 5
 50 699.438 l 5
 150 699.438 l 5
 150 499.438 l 5
 250 499.438 l 5
 250 699.438 l 5xf680
450 200 m 5xe7
 450 299.438 l 5
 750 299.438 l 5xe7
 750 0.5625 l 5
 250 0.5625 l 5
 250 200.562 l 5
 150 200.562 l 5
 150 0.5625 l 5
 50 0.5625 l 5
 50 300 l 5
 350 300 l 5
 350 100 l 5
 650 100 l 5
 650 200 l 5xe680
 450 200 l 5xe7
EndSplineSet
Validated: 1
EndChar

StartChar: l
Encoding: 108 108 40
Width: 800
VWidth: 0
Flags: W
HStem: 0.5625 99.4375<150 650> 200.562 99.438<350 650> 400 300<450 550 650 750> 400 99.438<550 650>
VStem: 50 100<100 700> 250 100<300 700> 450 100<499.438 700> 650 100<100 200.562 499.438 700>
LayerCount: 2
Fore
SplineSet
650 499.438 m 5xdf
 650 700 l 5
 750 700 l 5
 750 400.562 l 5
 750 400 l 5
 450 400 l 5
 450 400.562 l 5
 450 700 l 5
 550 700 l 5xef
 550 499.438 l 5
 650 499.438 l 5xdf
350 300 m 5
 750 300 l 5
 750 0.5625 l 5
 50 0.5625 l 5
 50 700 l 5
 150 700 l 5
 150 100 l 5
 650 100 l 5
 650 200.562 l 5
 250 200.562 l 5
 250 700 l 5
 350 700 l 5
 350 300 l 5
EndSplineSet
Validated: 1
EndChar

StartChar: m
Encoding: 109 109 41
Width: 800
VWidth: 0
Flags: W
HStem: 0.5625 99.4375<350 450> 600.562 99.438<150 250 550 650>
VStem: 50 100<0.5625 600.562> 250 100<100 600.562> 450 100<100 600.562> 650 100<0.5625 600.562>
LayerCount: 2
Fore
SplineSet
450 700 m 5
 750 700 l 5
 750 0.5625 l 5
 650 0.5625 l 5
 650 600.562 l 5
 550 600.562 l 5
 550 100 l 5
 550 0.5625 l 5
 250 0.5625 l 5
 250 600.562 l 5
 150 600.562 l 5
 150 0.5625 l 5
 50 0.5625 l 5
 50 700 l 5
 350 700 l 5
 350 100 l 5
 450 100 l 5
 450 700 l 5
EndSplineSet
Validated: 1
EndChar

StartChar: n
Encoding: 110 110 42
Width: 800
VWidth: 0
Flags: W
HStem: 0.5625 99.4375<550 650> 600.562 99.438<150 250>
VStem: 50 100<0.5625 600.562> 250 100<0.5625 600.562> 450 100<100 700> 650 100<100 700>
LayerCount: 2
Fore
SplineSet
650 100 m 5
 650 700 l 5
 750 700 l 5
 750 0.5625 l 5
 650 0.5625 l 5
 550 0.5625 l 5
 450 0.5625 l 5
 450 700 l 5
 550 700 l 5
 550 100 l 5
 650 100 l 5
50 700 m 5
 350 700 l 5
 350 0.5625 l 5
 250 0.5625 l 5
 250 600.562 l 5
 150 600.562 l 5
 150 0.5625 l 5
 50 0.5625 l 5
 50 700 l 5
EndSplineSet
Validated: 1
EndChar

StartChar: o
Encoding: 111 111 43
Width: 800
VWidth: 0
Flags: W
HStem: 0 300<250 349.438 450.562 550> 0 100<149.438 250 550 650> 400 300<250 349.438 450.562 550> 600 100<149.438 250 550 650>
VStem: 50 99.438<100 600> 250 99.438<100 300 400 600> 450.562 99.438<100 300 400 600> 650 100<100 600>
LayerCount: 2
Fore
SplineSet
450.562 700 m 5x2f
 749.437 700 l 5
 750 700 l 5
 750 0 l 5
 749.437 0 l 5
 650 0 l 5x5f
 550 0 l 5
 450.562 0 l 5
 450.562 300 l 5
 550 300 l 5x8f
 550 100 l 5
 650 100 l 5
 650 600 l 5
 550 600 l 5x5f
 550 400 l 5
 450.562 400 l 5
 450.562 700 l 5x2f
50 700 m 5
 349.438 700 l 5
 349.438 400 l 5
 250 400 l 5x2f
 250 600 l 5
 149.438 600 l 5
 149.438 100 l 5
 250 100 l 5x5f
 250 300 l 5
 349.438 300 l 5x8f
 349.438 100 l 5x4f
 349.438 0 l 5
 250 0 l 5x8f
 149.438 0 l 5
 50 0 l 5
 50 100 l 5
 50 700 l 5
EndSplineSet
Validated: 1
EndChar

StartChar: p
Encoding: 112 112 44
Width: 800
VWidth: 0
Flags: W
HStem: 0.5625 299.438<450 550 650 750> 200.562 99.438<550 650> 600.562 99.438<150 650>
VStem: 50 100<0.5625 600.562> 250 100<0.5625 400> 450 100<0.5625 200.562> 650 100<0.5625 200.562 499.438 600.562>
LayerCount: 2
Fore
SplineSet
50 700 m 5xbe
 750 700 l 5
 750 699.438 l 5
 750 400 l 5
 650 400 l 5
 350 400 l 5
 350 0.5625 l 5
 250 0.5625 l 5
 250 499.438 l 5
 250 500 l 5
 650 499.438 l 5
 650 600.562 l 5
 150 600.562 l 5
 150 0.5625 l 5
 50 0.5625 l 5
 50 700 l 5xbe
450 300 m 5
 750 300 l 5
 750 0.5625 l 5
 650 0.5625 l 5xbe
 650 200.562 l 5
 550 200.562 l 5x7e
 550 0.5625 l 5
 450 0.5625 l 5
 450 300 l 5
EndSplineSet
Validated: 1
EndChar

StartChar: q
Encoding: 113 113 45
Width: 800
VWidth: 0
Flags: W
HStem: 0 100<150.562 250.562 549.438 749.438> 0.000976562 21G<50.5625 150.562> 200 100<549.438 649.438> 600.001 100<150.562 250.562 549.438 649.438> 680 20.001G<50.5625 51.126 450 450.001 748.874 749.438>
VStem: 50.5625 99.999<100.001 600.001> 250.562 99.4385<100.001 300.001 400.001 600.001> 450 99.4375<100 200> 649.438 100<300 600>
LayerCount: 2
Fore
SplineSet
748.874 700 m 1xa780
 749.438 700 l 1
 749.438 200 l 1
 549.438 200 l 1
 549.438 100 l 1
 749.438 100 l 1
 749.438 0 l 1
 450.001 0 l 1
 450 0 l 1
 450 300 l 1
 450.001 300 l 1
 649.438 300 l 1
 649.438 600 l 1
 549.438 600 l 1
 549.438 400 l 1
 450.001 400 l 1
 450 700 l 1
 450.001 700 l 1
 748.874 700 l 1xa780
51.126 700.001 m 1x6f80
 350 700.001 l 1x6f80
 350 400.001 l 1
 250.562 400.001 l 1
 250.562 600.001 l 1
 150.562 600.001 l 1x3780
 150.562 100.001 l 1
 250.562 100.001 l 1
 250.562 300.001 l 1
 350 300.001 l 1
 350 0.000976562 l 1
 349.999 0.000976562 l 1
 250.562 0.000976562 l 1
 150.562 0.000976562 l 1
 51.126 0.000976562 l 1
 50.5625 0.000976562 l 1
 50.5625 700.001 l 1
 51.126 700.001 l 1x6f80
EndSplineSet
Validated: 1
EndChar

StartChar: r
Encoding: 114 114 46
Width: 800
VWidth: 0
Flags: W
HStem: 0 100<350 650> 200 100<149.438 250.001 450 650> 400 100<150 650.562> 600 100<250.562 650.562>
VStem: 50.5625 99.4375<500 700> 650 100<100 200 500 600>
LayerCount: 2
Fore
SplineSet
250.562 600 m 5
 250.562 700 l 5
 750 700 l 5
 750 400 l 5
 50.5625 400 l 5
 50.5625 700 l 5
 150 700 l 5
 150 500 l 5
 650.562 500 l 5
 650.562 600 l 5
 250.562 600 l 5
749.438 300 m 5
 750 300 l 5
 750 0 l 5
 748.875 0 l 5
 650 0 l 5
 449.438 0 l 5
 250.001 0 l 5
 250.001 200 l 5
 149.438 200 l 5
 149.438 0 l 5
 50.001 0 l 5
 50 300 l 5
 50.001 300 l 5
 349.438 300 l 5
 350 100 l 5
 650 100 l 5
 650 200 l 5
 450 200 l 5
 450 300 l 5
 749.438 300 l 5
EndSplineSet
Validated: 1
EndChar

StartChar: s
Encoding: 115 115 47
Width: 800
VWidth: 0
Flags: W
HStem: 0 100<50 650.562> 200 100<50.5625 650.562> 400 100<149.438 749.438> 600 100<149.438 750>
LayerCount: 2
Fore
SplineSet
750 600 m 5
 149.438 600 l 5
 149.438 500 l 5
 749.438 500 l 5
 749.438 400 l 5
 149.438 400 l 5
 50.001 400 l 5
 50 400 l 5
 50.001 700 l 5
 50.5625 700 l 5
 750 700 l 5
 750 600 l 5
50 100 m 5
 650.562 100 l 5
 650.562 200 l 5
 50.5625 200 l 5
 50.5625 300 l 5
 650.562 300 l 5
 749.999 300 l 5
 750 300 l 5
 749.999 0 l 5
 749.438 0 l 5
 50 0 l 5
 50 100 l 5
EndSplineSet
Validated: 5
EndChar

StartChar: u
Encoding: 117 117 48
Width: 800
VWidth: 0
Flags: W
HStem: 0.282227 99.7178<149.999 650.002> 679.72 20G<49.999 349.999 450.002 750.002> 679.72 20G<49.999 349.999 450.002 750.002>
VStem: 250 100<200 600.282> 450 100<200 600.282> 650.002 100<100 600.282>
LayerCount: 2
Fore
SplineSet
450.002 699.719 m 5xdc
 750.002 699.72 l 5
 750.002 699.719 l 5
 750.002 0.282227 l 5
 49.999 0.282227 l 5
 49.999 0.5625 l 5
 49.998 0.5625 l 5
 49.999 699.719 l 5
 49.999 699.72 l 5
 349.999 699.719 l 5
 349.999 699.438 l 5
 350 699.438 l 5
 350 200 l 5
 250 200 l 5
 250 600.282 l 5
 149.999 600.282 l 5
 149.999 100 l 5
 650.002 100 l 5
 650.002 600.282 l 5
 550 600.282 l 5
 550 200 l 5
 450 200 l 5
 450 699.438 l 5
 450.002 699.438 l 5
 450.002 699.719 l 5xdc
EndSplineSet
Validated: 5
EndChar

StartChar: w
Encoding: 119 119 49
Width: 800
VWidth: 0
Flags: W
HStem: 0.282227 21G<49.999 350.001 450.001 750.001> 0.282227 21G<49.999 350.001 450.001 750.001> 600 100<350.001 450.001>
VStem: 49.999 100<100 699.72> 250.001 100<100 600> 450.001 100<100 600> 650.001 100<100 699.72>
LayerCount: 2
Fore
SplineSet
650.001 100 m 5xbe
 650.001 699.72 l 5
 750.001 699.72 l 5
 750.001 0.5625 l 5
 750.001 0.282227 l 5
 450.001 0.5625 l 5
 450.001 600 l 5
 350.001 600 l 5
 350.001 0.5625 l 5
 49.999 0.282227 l 5
 49.999 0.5625 l 5
 49.999 699.72 l 5
 149.999 699.72 l 5
 149.999 100 l 5
 250.001 100 l 5
 250.001 699.438 l 5
 250.001 700 l 5
 550.001 700 l 5
 550.001 699.438 l 5
 550.001 100 l 5
 650.001 100 l 5xbe
EndSplineSet
Validated: 1
EndChar

StartChar: x
Encoding: 120 120 50
Width: 800
VWidth: 0
Flags: W
HStem: 0.5625 99.4375<149.999 349.999 450.001 649.999> 200.562 99.4385<149.999 249.999 549.999 649.999> 680 20G<49.999 349.999 450.001 749.999> 680 20G<49.999 349.999 450.001 749.999>
VStem: 49.999 100<100 200.562 499.438 600> 249.999 100<300 400> 449.999 100<300 400> 649.999 100.002<100 200.562 499.438 600>
LayerCount: 2
Fore
SplineSet
49.999 700 m 5xef
 349.999 699.438 l 5
 349.999 600 l 5
 149.999 600 l 5
 149.999 499.438 l 5
 349.999 500 l 5
 349.999 499.438 l 5
 349.999 200.562 l 5
 149.999 200.562 l 5
 149.999 100 l 5
 349.999 100 l 5
 349.999 0.5625 l 5
 49.999 0.5625 l 5
 49.999 300 l 5
 249.999 300 l 5
 249.999 400 l 5
 49.999 400 l 5
 49.999 400.562 l 5
 49.999 699.438 l 5
 49.999 700 l 5xef
750.001 699.438 m 5
 750.001 400 l 5
 549.999 400 l 5
 549.999 300 l 5
 749.999 300 l 5
 750.001 300 l 5
 750.001 0.5625 l 5
 749.999 0.5625 l 5
 450.001 0.5625 l 5
 450.001 100 l 5
 649.999 100 l 5
 649.999 200.562 l 5
 449.999 200.562 l 5
 449.999 500 l 5
 649.999 499.438 l 5
 649.999 600 l 5
 450.001 600 l 5
 450.001 699.438 l 5
 749.999 700 l 5
 749.999 699.438 l 5
 750.001 699.438 l 5
EndSplineSet
Validated: 1
EndChar

StartChar: y
Encoding: 121 121 51
Width: 800
VWidth: 0
Flags: W
HStem: 0 100<50.2812 250.844 549.72 749.719> 200 100<150.844 250.844 549.72 649.719> 600.001 100<150.844 250.844 549.72 649.719> 680 20.001G<50.8438 51.4072 450.281 450.282 749.155 749.719>
VStem: 50.8438 100<300 600.001> 250.844 99.4375<400.001 600.001> 450.281 99.4385<100 200> 649.719 100<300 600>
LayerCount: 2
Fore
SplineSet
749.155 700 m 5xcf
 749.719 700 l 5
 749.719 200 l 5
 549.72 200 l 5
 549.72 100 l 5
 749.719 100 l 5
 749.719 0 l 5
 549.72 0 l 5
 450.282 0 l 5
 450.281 0 l 5
 450.281 300 l 5
 450.282 300 l 5
 649.719 300 l 5
 649.719 600 l 5
 549.72 600 l 5
 549.72 400 l 5
 450.282 400 l 5
 450.281 700 l 5
 450.282 700 l 5
 749.155 700 l 5xcf
51.4072 700.001 m 5xdf
 350.281 700.001 l 5xdf
 350.281 400.001 l 5
 250.844 400.001 l 5
 250.844 600.001 l 5
 150.844 600.001 l 5xef
 150.844 300 l 5
 350.281 300 l 5
 350.281 200 l 5
 350.28 0.000976562 l 5
 349.72 0.000976562 l 5
 349.72 0 l 5
 50.2812 0 l 5
 50.2812 100 l 5
 250.844 100 l 5
 250.844 200 l 5
 50.8438 200 l 5
 50.8438 700.001 l 5
 51.4072 700.001 l 5xdf
EndSplineSet
Validated: 1
EndChar

StartChar: z
Encoding: 122 122 52
Width: 800
VWidth: 0
Flags: W
HStem: 0 100.001<150.281 749.715> 199.999 100.001<150.281 749.715> 400 100.001<50.2812 650.281> 599.999 100.001<50.2812 650.281>
VStem: 50.2812 100<100.001 199.999>
LayerCount: 2
Fore
SplineSet
749.715 700 m 5
 749.719 400 l 5
 749.715 400 l 5
 50.2812 400 l 5
 50.2812 500.001 l 5
 650.281 500.001 l 5
 650.281 599.999 l 5
 50.2812 599.999 l 5
 50.2812 700 l 5
 749.715 700 l 5
50.8438 300 m 5
 749.715 300 l 5
 749.715 199.999 l 5
 150.281 199.999 l 5
 150.281 100.001 l 5
 749.715 100.001 l 5
 749.715 0 l 5
 150.281 0 l 5
 50.8438 0 l 5
 50.2812 0 l 5
 50.2812 300 l 5
 50.8438 300 l 5
EndSplineSet
Validated: 1
EndChar

StartChar: zero
Encoding: 48 48 53
Width: 800
VWidth: 0
Flags: W
HStem: 0 100<50 150 250 350 450 550 650 750> 200 100<50 150 250 350 450 550 650 750> 400 100<50 150 250 350 450 550 650 750> 600 100<50 150 250 350 450 550 650 750>
VStem: 50 100<0 100 200 300 400 500 600 700> 250 100<0 100 200 300 400 500 600 700> 450 100<0 100 200 300 400 500 600 700> 650 100<0 100 200 300 400 500 600 700>
LayerCount: 2
Fore
SplineSet
50 600 m 1
 50 700 l 1
 150 700 l 1
 150 600 l 1
 50 600 l 1
250 600 m 1
 250 700 l 1
 350 700 l 1
 350 600 l 1
 250 600 l 1
450 600 m 1
 450 700 l 1
 550 700 l 1
 550 600 l 1
 450 600 l 1
650 600 m 1
 650 700 l 1
 750 700 l 1
 750 600 l 1
 650 600 l 1
50 400 m 1
 50 500 l 1
 150 500 l 1
 150 400 l 1
 50 400 l 1
250 400 m 1
 250 500 l 1
 350 500 l 1
 350 400 l 1
 250 400 l 1
450 400 m 1
 450 500 l 1
 550 500 l 1
 550 400 l 1
 450 400 l 1
650 400 m 1
 650 500 l 1
 750 500 l 1
 750 400 l 1
 650 400 l 1
50 200 m 1
 50 300 l 1
 150 300 l 1
 150 200 l 1
 50 200 l 1
250 200 m 1
 250 300 l 1
 350 300 l 1
 350 200 l 1
 250 200 l 1
450 200 m 1
 450 300 l 1
 550 300 l 1
 550 200 l 1
 450 200 l 1
650 200 m 1
 650 300 l 1
 750 300 l 1
 750 200 l 1
 650 200 l 1
50 0 m 1
 50 100 l 1
 150 100 l 1
 150 0 l 1
 50 0 l 1
250 0 m 1
 250 100 l 1
 350 100 l 1
 350 0 l 1
 250 0 l 1
450 0 m 1
 450 100 l 1
 550 100 l 1
 550 0 l 1
 450 0 l 1
650 0 m 1
 650 100 l 1
 750 100 l 1
 750 0 l 1
 650 0 l 1
EndSplineSet
Validated: 1
EndChar

StartChar: one
Encoding: 49 49 54
Width: 800
VWidth: 0
Flags: W
HStem: 0 100<250 750> 200 100<250 750> 400 100<250 750> 600 100<250 750>
VStem: 50 100<0 700> 250 500<0 100 200 300 400 500 600 700>
LayerCount: 2
Fore
SplineSet
50 0 m 5
 50 700 l 5
 150 700 l 5
 150 0 l 5
 50 0 l 5
250 600 m 5
 250 700 l 5
 750 700 l 5
 750 600 l 5
 250 600 l 5
250 400 m 5
 250 500 l 5
 750 500 l 5
 750 400 l 5
 250 400 l 5
250 200 m 5
 250 300 l 5
 750 300 l 5
 750 200 l 5
 250 200 l 5
250 0 m 5
 250 100 l 5
 750 100 l 5
 750 0 l 5
 250 0 l 5
EndSplineSet
Validated: 1
EndChar

StartChar: two
Encoding: 50 50 55
Width: 800
VWidth: 0
Flags: W
HStem: 0 100<450 750> 200 100<450 750> 400 100<450 750> 600 100<450 750>
VStem: 50 100<0 700> 250 100<0 700> 450 300<0 100 200 300 400 500 600 700>
LayerCount: 2
Fore
SplineSet
50 0 m 5
 50 700 l 5
 150 700 l 5
 150 0 l 5
 50 0 l 5
250 0 m 5
 250 700 l 5
 350 700 l 5
 350 0 l 5
 250 0 l 5
450 600 m 5
 450 700 l 5
 750 700 l 5
 750 600 l 5
 450 600 l 5
450 400 m 5
 450 500 l 5
 750 500 l 5
 750 400 l 5
 450 400 l 5
450 200 m 5
 450 300 l 5
 750 300 l 5
 750 200 l 5
 450 200 l 5
450 0 m 5
 450 100 l 5
 750 100 l 5
 750 0 l 5
 450 0 l 5
EndSplineSet
Validated: 1
EndChar

StartChar: three
Encoding: 51 51 56
Width: 800
VWidth: 0
Flags: W
HStem: 0 100<650 750> 200 100<650 750> 400 100<650 750> 600 100<650 750>
VStem: 50 100<0 700> 250 100<0 700> 450 100<0 700> 650 100<0 100 200 300 400 500 600 700>
LayerCount: 2
Fore
SplineSet
50 0 m 5
 50 700 l 5
 150 700 l 5
 150 0 l 5
 50 0 l 5
250 0 m 5
 250 700 l 5
 350 700 l 5
 350 0 l 5
 250 0 l 5
450 0 m 5
 450 700 l 5
 550 700 l 5
 550 0 l 5
 450 0 l 5
650 600 m 5
 650 700 l 5
 750 700 l 5
 750 600 l 5
 650 600 l 5
650 400 m 5
 650 500 l 5
 750 500 l 5
 750 400 l 5
 650 400 l 5
650 200 m 5
 650 300 l 5
 750 300 l 5
 750 200 l 5
 650 200 l 5
650 0 m 5
 650 100 l 5
 750 100 l 5
 750 0 l 5
 650 0 l 5
EndSplineSet
Validated: 1
EndChar

StartChar: four
Encoding: 52 52 57
Width: 800
VWidth: 0
Flags: W
HStem: 0 21G<50 150 250 350 450 550 650 750> 0 21G<50 150 250 350 450 550 650 750> 680 20G<50 150 250 350 450 550 650 750> 680 20G<50 150 250 350 450 550 650 750>
VStem: 50 100<0 700> 250 100<0 700> 450 100<0 700> 650 100<0 700>
LayerCount: 2
Fore
SplineSet
50 0 m 5xaf
 50 700 l 5
 150 700 l 5
 150 0 l 5
 50 0 l 5xaf
250 0 m 5
 250 700 l 5
 350 700 l 5
 350 0 l 5
 250 0 l 5
450 0 m 5
 450 700 l 5
 550 700 l 5
 550 0 l 5
 450 0 l 5
650 0 m 5
 650 700 l 5
 750 700 l 5
 750 0 l 5
 650 0 l 5
EndSplineSet
Validated: 1
EndChar

StartChar: five
Encoding: 53 53 58
Width: 800
VWidth: 0
Flags: W
HStem: 0 300<50 150 250 350 450 550 650 750> 400 300<50 150 250 350 450 550 650 750>
VStem: 50 100<0 300 400 700> 250 100<0 300 400 700> 450 100<0 300 400 700> 650 100<0 300 400 700>
LayerCount: 2
Fore
SplineSet
50 400 m 5
 50 700 l 5
 150 700 l 5
 150 400 l 5
 50 400 l 5
250 400 m 5
 250 700 l 5
 350 700 l 5
 350 400 l 5
 250 400 l 5
450 400 m 5
 450 700 l 5
 550 700 l 5
 550 400 l 5
 450 400 l 5
650 400 m 5
 650 700 l 5
 750 700 l 5
 750 400 l 5
 650 400 l 5
50 0 m 5
 50 300 l 5
 150 300 l 5
 150 0 l 5
 50 0 l 5
250 0 m 5
 250 300 l 5
 350 300 l 5
 350 0 l 5
 250 0 l 5
450 0 m 5
 450 300 l 5
 550 300 l 5
 550 0 l 5
 450 0 l 5
650 0 m 5
 650 300 l 5
 750 300 l 5
 750 0 l 5
 650 0 l 5
EndSplineSet
Validated: 1
EndChar

StartChar: six
Encoding: 54 54 59
Width: 800
VWidth: 0
Flags: W
HStem: 0 500<50 150 250 350 450 550 650 750> 600 100<50 750>
VStem: 50 100<0 500> 250 100<0 500> 450 100<0 500> 650 100<0 500>
LayerCount: 2
Fore
SplineSet
50 0 m 5
 50 500 l 5
 150 500 l 5
 150 0 l 5
 50 0 l 5
250 0 m 5
 250 500 l 5
 350 500 l 5
 350 0 l 5
 250 0 l 5
450 0 m 5
 450 500 l 5
 550 500 l 5
 550 0 l 5
 450 0 l 5
650 0 m 5
 650 500 l 5
 750 500 l 5
 750 0 l 5
 650 0 l 5
50 600 m 5
 50 700 l 5
 750 700 l 5
 750 600 l 5
 50 600 l 5
EndSplineSet
Validated: 1
EndChar

StartChar: seven
Encoding: 55 55 60
Width: 800
VWidth: 0
Flags: W
HStem: 0 300<50 150 250 350 450 550 650 750> 400 100<50 750> 600 100<50 750>
VStem: 50 100<0 300> 250 100<0 300> 450 100<0 300> 650 100<0 300>
LayerCount: 2
Fore
SplineSet
50 0 m 5
 50 300 l 5
 150 300 l 5
 150 0 l 5
 50 0 l 5
250 0 m 5
 250 300 l 5
 350 300 l 5
 350 0 l 5
 250 0 l 5
450 0 m 5
 450 300 l 5
 550 300 l 5
 550 0 l 5
 450 0 l 5
650 0 m 5
 650 300 l 5
 750 300 l 5
 750 0 l 5
 650 0 l 5
50 600 m 5
 50 700 l 5
 750 700 l 5
 750 600 l 5
 50 600 l 5
50 400 m 5
 50 500 l 5
 750 500 l 5
 750 400 l 5
 50 400 l 5
EndSplineSet
Validated: 1
EndChar

StartChar: eight
Encoding: 56 56 61
Width: 800
VWidth: 0
Flags: W
HStem: 0 100<50 150 250 350 450 550 650 750> 200 100<50 750> 400 100<50 750> 600 100<50 750>
VStem: 50 100<0 100> 250 100<0 100> 450 100<0 100> 650 100<0 100>
LayerCount: 2
Fore
SplineSet
50 0 m 1
 50 100 l 1
 150 100 l 1
 150 0 l 1
 50 0 l 1
250 0 m 1
 250 100 l 1
 350 100 l 1
 350 0 l 1
 250 0 l 1
450 0 m 1
 450 100 l 1
 550 100 l 1
 550 0 l 1
 450 0 l 1
650 0 m 1
 650 100 l 1
 750 100 l 1
 750 0 l 1
 650 0 l 1
50 600 m 1
 50 700 l 1
 750 700 l 1
 750 600 l 1
 50 600 l 1
50 400 m 1
 50 500 l 1
 750 500 l 1
 750 400 l 1
 50 400 l 1
50 200 m 1
 50 300 l 1
 750 300 l 1
 750 200 l 1
 50 200 l 1
EndSplineSet
Validated: 1
EndChar

StartChar: nine
Encoding: 57 57 62
Width: 800
VWidth: 0
Flags: W
HStem: 0 100<50 750> 200 100<50 750> 400 100<50 750> 600 100<50 750>
LayerCount: 2
Fore
SplineSet
50 600 m 5
 50 700 l 5
 750 700 l 5
 750 600 l 5
 50 600 l 5
50 400 m 5
 50 500 l 5
 750 500 l 5
 750 400 l 5
 50 400 l 5
50 200 m 5
 50 300 l 5
 750 300 l 5
 750 200 l 5
 50 200 l 5
50 0 m 5
 50 100 l 5
 750 100 l 5
 750 0 l 5
 50 0 l 5
EndSplineSet
Validated: 1
EndChar

StartChar: colon
Encoding: 58 58 63
Width: 800
VWidth: 0
Flags: W
HStem: 300 100<350 450> 500 100<350 450>
VStem: 350 100<300 400 500 600>
LayerCount: 2
Fore
SplineSet
350 500 m 5
 350 600 l 5
 450 600 l 5
 450 500 l 5
 350 500 l 5
350 300 m 5
 350 400 l 5
 450 400 l 5
 450 300 l 5
 350 300 l 5
EndSplineSet
Validated: 1
EndChar

StartChar: semicolon
Encoding: 59 59 64
Width: 800
VWidth: 0
Flags: W
HStem: 500 100<350 450>
VStem: 350 100<200 400 500 600>
LayerCount: 2
Fore
SplineSet
350 500 m 5
 350 600 l 5
 450 600 l 5
 450 500 l 5
 350 500 l 5
350 200 m 5
 350 400 l 5
 450 400 l 5
 450 200 l 5
 350 200 l 5
EndSplineSet
Validated: 1
EndChar

StartChar: period
Encoding: 46 46 65
Width: 800
VWidth: 0
Flags: W
HStem: 500 100<350 450>
VStem: 350 100<500 600>
LayerCount: 2
Fore
SplineSet
350 500 m 5
 350 600 l 5
 450 600 l 5
 450 500 l 5
 350 500 l 5
EndSplineSet
Validated: 1
EndChar

StartChar: comma
Encoding: 44 44 66
Width: 800
VWidth: 0
Flags: W
HStem: 400 200<350 450>
VStem: 350 100<400 600>
LayerCount: 2
Fore
SplineSet
350 400 m 5
 350 600 l 5
 450 600 l 5
 450 400 l 5
 350 400 l 5
EndSplineSet
Validated: 1
EndChar

StartChar: slash
Encoding: 47 47 67
Width: 800
VWidth: 0
Flags: W
HStem: 0 100<50 350 450 750> 200 100<50 350 450 750> 400 100<50 350 450 750> 600 100<50 350 450 750>
VStem: 50 300<0 100 200 300 400 500 600 700> 450 300<0 100 200 300 400 500 600 700>
LayerCount: 2
Fore
SplineSet
50 600 m 5
 50 700 l 5
 350 700 l 5
 350 600 l 5
 50 600 l 5
50 400 m 5
 50 500 l 5
 350 500 l 5
 350 400 l 5
 50 400 l 5
50 200 m 5
 50 300 l 5
 350 300 l 5
 350 200 l 5
 50 200 l 5
50 0 m 5
 50 100 l 5
 350 100 l 5
 350 0 l 5
 50 0 l 5
450 600 m 5
 450 700 l 5
 750 700 l 5
 750 600 l 5
 450 600 l 5
450 400 m 5
 450 500 l 5
 750 500 l 5
 750 400 l 5
 450 400 l 5
450 200 m 5
 450 300 l 5
 750 300 l 5
 750 200 l 5
 450 200 l 5
450 0 m 5
 450 100 l 5
 750 100 l 5
 750 0 l 5
 450 0 l 5
EndSplineSet
Validated: 1
EndChar

StartChar: AE
Encoding: 198 198 68
Width: 800
VWidth: 0
Flags: W
HStem: 0 21G<50 150 250 350 350 749.992> 0 21G<50 150 250 350 350 749.992> 680 20G<50 750> 680 20G<50 750>
VStem: 50 100<0 599.998> 250 100<0 0.00488281 100.005 200.005 500.005 599.994>
LayerCount: 2
Fore
SplineSet
750 599.986 m 1xac
 350 599.994 l 1
 350 500.005 l 1
 750 499.997 l 1
 749.99 399.997 l 1
 250 400 l 1
 250 400.007 l 1
 250 599.996 l 1
 150 599.998 l 1
 150 0 l 1
 50 0 l 1
 50 700 l 1
 750 699.986 l 1
 750 599.986 l 1xac
749.99 199.997 m 1
 350 200.005 l 1
 350 100.005 l 1
 750 99.9971 l 1
 749.99 -0.00292969 l 1
 350 0.00488281 l 1
 350 0 l 1
 250 0 l 1
 250 0.00683594 l 1
 250 300.007 l 1
 750 299.997 l 1
 749.99 199.997 l 1
EndSplineSet
Validated: 1
EndChar

StartChar: exclam
Encoding: 33 33 69
Width: 800
VWidth: 0
Flags: W
HStem: 200 100<350 450>
VStem: 350 100<200 300 400 600>
LayerCount: 2
Fore
SplineSet
350 200 m 5
 350 300 l 5
 450 300 l 5
 450 200 l 5
 350 200 l 5
350 400 m 5
 350 600 l 5
 450 600 l 5
 450 400 l 5
 350 400 l 5
EndSplineSet
Validated: 1
EndChar

StartChar: question
Encoding: 63 63 70
Width: 800
VWidth: 0
Flags: W
HStem: 200 100<350 450> 500 100<250 350 450 550>
VStem: 350 100<200 300 400 500>
LayerCount: 2
Fore
SplineSet
350 200 m 5
 350 300 l 5
 450 300 l 5
 450 200 l 5
 350 200 l 5
350 400 m 5
 350 500 l 5
 450 500 l 5
 450 400 l 5
 350 400 l 5
250 500 m 5
 250 600 l 5
 550 600 l 5
 550 500 l 5
 250 500 l 5
EndSplineSet
Validated: 5
EndChar

StartChar: bar
Encoding: 124 124 71
Width: 800
VWidth: 0
Flags: W
VStem: 350 100<100 600>
LayerCount: 2
Fore
SplineSet
350 100 m 5
 350 600 l 5
 450 600 l 5
 450 100 l 5
 350 100 l 5
EndSplineSet
Validated: 1
EndChar

StartChar: hyphen
Encoding: 45 45 72
Width: 800
VWidth: 0
Flags: W
HStem: 500 100<250 550>
VStem: 250 300<500 600>
LayerCount: 2
Fore
SplineSet
250 500 m 5
 250 600 l 5
 550 600 l 5
 550 500 l 5
 250 500 l 5
EndSplineSet
Validated: 1
EndChar

StartChar: ae
Encoding: 230 230 73
Width: 800
VWidth: 0
Flags: W
HStem: 0 21G<50 150 250 350 350 749.992> 0 21G<50 150 250 350 350 749.992> 680 20G<50 750> 680 20G<50 750>
VStem: 50 100<0 599.998> 250 100<0 0.00488281 100.005 200.005 500.005 599.994>
LayerCount: 2
Fore
SplineSet
750 599.986 m 5xac
 350 599.994 l 5
 350 500.005 l 5
 750 499.997 l 5
 749.99 399.997 l 5
 250 400 l 5
 250 400.007 l 5
 250 599.996 l 5
 150 599.998 l 5
 150 0 l 5
 50 0 l 5
 50 700 l 5
 750 699.986 l 5
 750 599.986 l 5xac
749.99 199.997 m 5
 350 200.005 l 5
 350 100.005 l 5
 750 99.9971 l 5
 749.99 -0.00292969 l 5
 350 0.00488281 l 5
 350 0 l 5
 250 0 l 5
 250 0.00683594 l 5
 250 300.007 l 5
 750 299.997 l 5
 749.99 199.997 l 5
EndSplineSet
Validated: 1
EndChar

StartChar: oslash
Encoding: 248 248 74
Width: 800
VWidth: 0
Flags: W
HStem: -0.00292969 21G<50 749.994> -0.00292969 21G<50 749.994> 680 20G<50.0018 750.003> 680 20G<50.0018 750.003>
LayerCount: 2
Fore
SplineSet
749.996 599.986 m 5xa0
 350 599.994 l 5
 350 500.005 l 5
 750 499.997 l 5
 749.994 399.997 l 5
 250 400 l 5
 250 400.007 l 5
 249.997 400.007 l 5
 250 599.996 l 5
 150 599.998 l 5
 150 100.009 l 5
 250 100.007 l 5
 249.999 300.007 l 5
 750 299.997 l 5
 749.994 199.997 l 5
 350 200.005 l 5
 350 100.005 l 5
 750 99.9971 l 5
 749.992 -0.00292969 l 5
 50 0 l 5
 50 0.0107422 l 5
 49.9971 0.0107422 l 5
 50.002 700 l 5
 750.003 699.986 l 5
 749.996 599.986 l 5xa0
EndSplineSet
Validated: 1
EndChar

StartChar: Oslash
Encoding: 216 216 75
Width: 800
VWidth: 0
Flags: W
HStem: -0.00292969 21G<50 749.994> -0.00292969 21G<50 749.994> 680 20G<50.0018 750.003> 680 20G<50.0018 750.003>
LayerCount: 2
Fore
SplineSet
749.996 599.986 m 5xa0
 350 599.994 l 5
 350 500.005 l 5
 750 499.997 l 5
 749.994 399.997 l 5
 250 400 l 5
 250 400.007 l 5
 249.997 400.007 l 5
 250 599.996 l 5
 150 599.998 l 5
 150 100.009 l 5
 250 100.007 l 5
 249.999 300.007 l 5
 750 299.997 l 5
 749.994 199.997 l 5
 350 200.005 l 5
 350 100.005 l 5
 750 99.9971 l 5
 749.992 -0.00292969 l 5
 50 0 l 5
 50 0.0107422 l 5
 49.9971 0.0107422 l 5
 50.002 700 l 5
 750.003 699.986 l 5
 749.996 599.986 l 5xa0
EndSplineSet
Validated: 1
EndChar

StartChar: aring
Encoding: 229 229 76
Width: 800
VWidth: 0
Flags: W
HStem: 0 21G<49.998 149.998 249.998 349.998 450.002 550.002 650.002 750.002> 0 21G<49.998 149.998 249.998 349.998 450.002 550.002 650.002 750.002> 680 20G<49.998 349.998 450.002 750.002> 680 20G<49.998 349.998 450.002 750.002>
VStem: 49.998 100<0 599.99> 249.998 100<0 599.988> 650.002 100<0 599.988>
LayerCount: 2
Fore
SplineSet
49.998 700 m 5xae
 349.998 700 l 5
 349.998 0 l 5
 249.998 0 l 5
 249.998 599.988 l 5
 149.998 599.99 l 5
 149.998 0 l 5
 49.998 0 l 5
 49.998 699.992 l 5
 49.998 700 l 5xae
450.002 700 m 5
 750.002 700 l 5
 750.002 0 l 5
 650.002 0 l 5
 650.002 599.988 l 5
 550.002 599.99 l 5
 550.002 0 l 5
 450.002 0 l 5
 450.001 699.992 l 5
 450.002 699.992 l 5
 450.002 700 l 5
EndSplineSet
Validated: 1
EndChar

StartChar: OE
Encoding: 338 338 77
Width: 800
VWidth: 0
Flags: W
HStem: -0.00292969 21G<50 749.994> -0.00292969 21G<50 749.994> 680 20G<50.0018 750.003> 680 20G<50.0018 750.003>
LayerCount: 2
Fore
SplineSet
749.996 599.986 m 5xa0
 350 599.994 l 5
 350 500.005 l 5
 750 499.997 l 5
 749.994 399.997 l 5
 250 400 l 5
 250 400.007 l 5
 249.997 400.007 l 5
 250 599.996 l 5
 150 599.998 l 5
 150 100.009 l 5
 250 100.007 l 5
 249.999 300.007 l 5
 750 299.997 l 5
 749.994 199.997 l 5
 350 200.005 l 5
 350 100.005 l 5
 750 99.9971 l 5
 749.992 -0.00292969 l 5
 50 0 l 5
 50 0.0107422 l 5
 49.9971 0.0107422 l 5
 50.002 700 l 5
 750.003 699.986 l 5
 749.996 599.986 l 5xa0
EndSplineSet
Validated: 1
EndChar

StartChar: oe
Encoding: 339 339 78
Width: 800
VWidth: 0
Flags: W
HStem: -0.00292969 21G<50 749.994> -0.00292969 21G<50 749.994> 680 20G<50.0018 750.003> 680 20G<50.0018 750.003>
LayerCount: 2
Fore
SplineSet
749.996 599.986 m 5xa0
 350 599.994 l 5
 350 500.005 l 5
 750 499.997 l 5
 749.994 399.997 l 5
 250 400 l 5
 250 400.007 l 5
 249.997 400.007 l 5
 250 599.996 l 5
 150 599.998 l 5
 150 100.009 l 5
 250 100.007 l 5
 249.999 300.007 l 5
 750 299.997 l 5
 749.994 199.997 l 5
 350 200.005 l 5
 350 100.005 l 5
 750 99.9971 l 5
 749.992 -0.00292969 l 5
 50 0 l 5
 50 0.0107422 l 5
 49.9971 0.0107422 l 5
 50.002 700 l 5
 750.003 699.986 l 5
 749.996 599.986 l 5xa0
EndSplineSet
Validated: 1
EndChar

StartChar: quotedbl
Encoding: 34 34 79
Width: 800
VWidth: 0
Flags: W
HStem: 400 100<250 350 450 550>
VStem: 250 100<400 500> 450 100<400 500>
LayerCount: 2
Fore
SplineSet
250 400 m 5
 250 500 l 5
 350 500 l 5
 350 400 l 5
 250 400 l 5
450 400 m 5
 450 500 l 5
 550 500 l 5
 550 400 l 5
 450 400 l 5
EndSplineSet
Validated: 1
EndChar

